<svg id="svg" version="1.1" xmlns="http://www.w3.org/2000/svg" xmlns:xlink="http://www.w3.org/1999/xlink" width="400" height="400" viewBox="0, 0, 400,400"><g id="svgg"><path id="path0" d="M181.400 29.225 C 158.694 31.088,140.526 36.127,120.640 46.077 C 71.696 70.565,39.031 112.255,27.931 164.400 C 24.785 179.175,24.400 181.595,24.142 188.200 C 23.731 198.758,24.155 199.747,34.060 211.299 C 44.554 223.539,47.026 225.787,49.706 225.523 C 52.515 225.247,52.533 225.115,52.595 203.443 C 52.661 180.939,52.760 179.871,56.007 166.828 C 73.951 94.754,140.107 50.916,214.800 61.604 C 224.479 62.989,224.557 63.007,232.021 65.392 C 252.184 71.836,256.218 71.318,273.315 60.091 C 282.286 54.200,279.930 49.960,263.175 41.841 C 250.849 35.869,238.429 32.490,218.800 29.770 C 213.349 29.015,188.394 28.651,181.400 29.225 M329.600 119.797 C 327.950 120.080,323.900 120.947,320.600 121.724 C 317.300 122.501,312.530 123.436,310.000 123.803 C 307.470 124.170,302.970 125.098,300.000 125.865 C 297.030 126.633,291.990 127.789,288.800 128.436 C 285.610 129.082,280.840 130.232,278.200 130.990 C 275.560 131.749,271.258 132.841,268.641 133.418 C 266.024 133.995,262.154 135.002,260.041 135.657 C 257.928 136.312,254.670 137.203,252.800 137.638 C 240.479 140.505,200.484 154.091,186.969 160.000 C 184.346 161.147,179.320 163.346,175.800 164.886 C 126.425 186.489,97.807 217.599,107.990 238.600 C 112.978 248.886,129.713 261.349,158.600 276.289 C 173.779 284.139,181.019 289.361,183.793 294.458 C 186.548 299.521,184.583 305.416,179.214 308.193 C 172.748 311.536,146.100 310.878,130.788 306.997 C 128.675 306.461,124.294 305.472,121.052 304.797 C 104.824 301.423,86.529 293.963,73.017 285.211 C 65.558 280.380,65.156 280.253,57.200 280.224 C 25.429 280.109,2.800 281.445,2.800 283.436 C 2.800 289.448,35.847 311.608,55.800 318.976 C 58.000 319.788,61.600 321.136,63.800 321.971 C 66.000 322.806,68.790 323.720,70.000 324.002 C 71.210 324.284,74.844 325.286,78.075 326.229 C 81.306 327.171,85.806 328.240,88.075 328.603 C 90.344 328.966,95.347 329.804,99.194 330.463 C 111.213 332.524,114.515 332.825,129.000 333.181 C 150.386 333.706,150.050 333.409,147.785 349.800 C 145.733 364.648,148.101 366.502,174.464 370.681 C 180.328 371.611,209.793 371.740,216.000 370.863 C 296.398 359.508,355.409 302.615,366.256 226.000 C 367.038 220.478,367.477 193.260,366.865 188.316 C 365.812 179.824,361.770 178.096,353.110 182.436 C 342.125 187.942,340.744 191.569,338.196 221.600 C 333.593 275.856,287.829 326.794,233.400 338.246 C 218.472 341.387,215.712 339.546,218.170 328.086 C 218.514 326.483,219.070 322.883,219.406 320.086 C 219.743 317.289,220.817 311.040,221.794 306.200 C 222.771 301.360,223.864 295.060,224.224 292.200 C 224.584 289.340,225.567 283.580,226.409 279.400 C 227.251 275.220,228.402 268.537,228.966 264.548 C 229.530 260.559,230.615 254.439,231.378 250.948 C 232.141 247.457,233.147 241.720,233.613 238.200 C 234.557 231.072,234.650 230.546,236.366 222.532 C 237.034 219.414,237.957 213.924,238.417 210.332 C 240.306 195.592,242.382 189.599,246.838 186.018 C 251.986 181.880,263.424 177.697,274.200 176.010 C 277.060 175.562,282.100 174.764,285.400 174.235 C 288.700 173.707,293.830 173.068,296.800 172.815 C 309.012 171.777,309.252 171.601,320.117 155.733 C 339.165 127.913,340.388 125.960,340.396 123.354 C 340.407 119.762,336.775 118.565,329.600 119.797 M174.742 202.970 C 177.697 204.498,177.312 212.777,173.429 231.197 C 170.444 245.351,168.188 247.241,159.955 242.480 C 150.101 236.781,145.803 226.565,150.000 218.815 C 154.397 210.695,170.160 200.601,174.742 202.970 " stroke="none" fill="#122988" fill-rule="evenodd"></path><path id="path1"  d="M397.400 34.222 C 396.300 34.535,394.196 35.058,392.724 35.385 C 387.123 36.628,377.282 39.209,374.451 40.177 C 372.829 40.732,370.129 41.557,368.451 42.011 C 357.378 45.008,320.841 57.504,303.600 64.192 C 277.588 74.282,264.674 79.723,242.600 89.896 C 189.807 114.224,128.791 155.275,115.295 175.546 C 110.928 182.104,114.495 181.010,133.600 169.931 C 138.330 167.188,145.080 163.351,148.600 161.404 C 166.359 151.581,192.364 139.672,213.600 131.636 C 218.330 129.846,223.820 127.759,225.800 126.997 C 233.178 124.159,256.451 116.469,264.400 114.241 C 267.150 113.471,270.480 112.464,271.800 112.004 C 273.120 111.544,276.360 110.621,279.000 109.954 C 281.640 109.286,285.780 108.143,288.200 107.414 C 290.620 106.685,294.760 105.609,297.400 105.023 C 300.040 104.436,304.090 103.408,306.400 102.736 C 308.710 102.065,313.210 100.990,316.400 100.348 C 319.590 99.706,324.180 98.652,326.600 98.005 C 329.020 97.358,334.142 96.275,337.981 95.598 C 344.831 94.391,355.724 91.831,359.119 90.630 C 363.192 89.189,365.296 86.822,374.081 73.800 C 384.738 58.004,390.235 50.016,392.435 47.126 C 393.723 45.436,395.432 43.027,396.234 41.774 C 397.139 40.359,398.128 39.331,398.846 39.060 C 399.957 38.641,400.761 33.532,399.700 33.627 C 399.535 33.642,398.500 33.910,397.400 34.222 " stroke="none" fill="#17a1dc" fill-rule="evenodd"></path></g></svg>